<?xml version="1.0" encoding="UTF-8" standalone="no"?>
<!-- Created with Inkscape (http://www.inkscape.org/) -->

<svg
   width="264.58334mm"
   height="90.752083mm"
   viewBox="0 0 264.58334 90.752083"
   version="1.1"
   id="svg162"
   inkscape:version="1.1.1 (3bf5ae0, 2021-09-20)"
   sodipodi:docname="logo--deafult.svg"
   xmlns:inkscape="http://www.inkscape.org/namespaces/inkscape"
   xmlns:sodipodi="http://sodipodi.sourceforge.net/DTD/sodipodi-0.dtd"
   xmlns="http://www.w3.org/2000/svg"
   xmlns:svg="http://www.w3.org/2000/svg">
  <sodipodi:namedview
     id="namedview164"
     pagecolor="#ffffff"
     bordercolor="#666666"
     borderopacity="1.0"
     inkscape:pageshadow="2"
     inkscape:pageopacity="0.0"
     inkscape:pagecheckerboard="0"
     inkscape:document-units="mm"
     showgrid="false"
     inkscape:zoom="0.48373316"
     inkscape:cx="623.2775"
     inkscape:cy="243.93614"
     inkscape:window-width="1846"
     inkscape:window-height="1022"
     inkscape:window-x="74"
     inkscape:window-y="28"
     inkscape:window-maximized="1"
     inkscape:current-layer="layer1" />
  <defs
     id="defs159" />
  <g
     inkscape:label="Layer 1"
     inkscape:groupmode="layer"
     id="layer1"
     transform="translate(60.316442,-83.496647)">
    <path
       id="S"
       style="fill:#ffffff;stroke-width:0.264583"
       d="m -42.076067,99.398107 q -5.122334,-2.30452 -6.260042,-3.01625 -1.367896,-0.88106 -1.367896,-2.27542 0,-3.72798 6.778625,-3.72798 4.815417,0 10.427229,2.24102 v -7.65439 q -7.545917,-1.46844 -11.533187,-1.46844 -7.231063,0 -11.731625,3.10092 -4.553479,3.13002 -4.553479,9.10695 0,4.640803 3.127375,7.683503 2.413,2.30717 10.36902,5.57742 4.431771,1.82298 5.511271,2.84692 a 3.1167916,3.1167916 0 0 1 1.053042,2.38919 q 0,3.81529 -7.220479,3.81529 -5.230813,0 -12.022667,-2.13784 v 7.95602 a 54.845478,54.840187 0 0 0 12.496271,1.4658 q 7.344833,0 11.959166,-2.78607 5.693834,-3.44223 5.693834,-9.99066 0,-4.55613 -2.905125,-7.4295 -2.44475,-2.42094 -9.821333,-5.696483 z m 19.081749,25.087793 h 11.255375 V 84.197797 H -22.994318 Z M 9.4330154,107.22977 H 25.117515 V 100.5808 H 9.4330154 V 91.484417 H 27.45114 v -7.28662 H -1.4149008 V 124.4859 H 27.916807 v -7.69673 H 9.4330154 Z M 59.99489,109.93911 49.856056,84.197797 H 35.264286 V 124.4859 h 7.929562 V 95.961167 L 54.782598,124.896 H 61.75966 L 73.578598,95.961167 V 124.4859 H 84.249243 V 84.197797 h -13.86152 z m 45.42896,-2.70934 h 15.6845 v -6.64897 h -15.6845 v -9.096383 h 18.01812 v -7.28662 H 94.575931 V 124.4859 h 29.329059 v -7.69673 h -18.48114 z m 52.77379,3.937 -13.83771,-26.968973 h -13.0466 V 124.4859 h 7.9322 V 97.151797 L 153.45101,124.4859 H 166.1272 V 84.197797 h -7.92956 z m 33.34279,-11.768663 q -5.11969,-2.30452 -6.26004,-3.01625 -1.3679,-0.88106 -1.3679,-2.27542 0,-3.72798 6.77863,-3.72798 4.81541,0 10.42723,2.24102 v -7.65439 q -7.54592,-1.46844 -11.53319,-1.46844 -7.23106,0 -11.73163,3.10092 -4.55348,3.13002 -4.55348,9.10695 0,4.640803 3.12738,7.683503 2.413,2.30717 10.36902,5.57742 4.43442,1.82298 5.51127,2.84692 a 3.1167916,3.1167916 0 0 1 1.05304,2.38919 q 0,3.81529 -7.22048,3.81529 -5.23081,0 -12.02266,-2.13784 v 7.95602 a 54.845478,54.840187 0 0 0 12.49627,1.4658 q 7.34483,0 11.95916,-2.78607 5.69384,-3.44223 5.69384,-9.99066 0,-4.55613 -2.90513,-7.4295 -2.44475,-2.42094 -9.82133,-5.696483 z" />
    <path
       id="E"
       style="fill:#ffffff;stroke-width:0.264583"
       d="m -27.534568,133.56904 c -3.518958,-0.19843 -7.090833,-0.33072 -10.689166,-0.33072 -3.598333,0 -7.170208,0.13229 -10.689167,0.33072 a 12.038542,12.038542 0 0 0 -11.403541,11.9724 v 16.40417 a 12.038542,12.038542 0 0 0 11.403541,11.97239 c 3.518959,0.19844 7.090834,0.33073 10.689167,0.33073 3.598333,0 7.170208,-0.13229 10.689166,-0.33073 a 12.038542,12.038542 0 0 0 11.403542,-11.97239 v -0.92604 h -5.159375 v 0.92604 a 6.8527082,6.8527082 0 0 1 -6.455833,6.79979 c -3.466042,0.21167 -6.958542,0.34396 -10.4775,0.34396 -3.518958,0 -7.011458,-0.13229 -10.4775,-0.34396 a 6.8527082,6.8527082 0 0 1 -6.455833,-6.79979 v -16.40417 a 6.8527082,6.8527082 0 0 1 6.455833,-6.79979 c 3.466042,-0.21167 6.958542,-0.34396 10.4775,-0.34396 3.518958,0 7.011458,0.13229 10.4775,0.34396 a 6.8527082,6.8527082 0 0 1 6.455833,6.79979 v 5.55625 h -21.298958 v 5.29167 h 26.458333 v -10.84792 a 12.038542,12.038542 0 0 0 -11.403542,-11.9724 z m 46.341771,0.0661 c -2.844271,-0.23812 -5.754688,-0.39687 -8.651875,-0.39687 -2.8971876,0 -5.8076042,0.15875 -8.6492288,0.39687 a 12.038542,12.038542 0 0 0 -10.929938,11.9063 v 28.31042 h 5.159375 v -28.31042 a 6.8791666,6.8791666 0 0 1 6.424083,-6.82096 c 2.6299588,-0.18256 5.2969587,-0.32279 7.9957088,-0.32279 2.69875,0 5.368396,0.13229 7.998354,0.32279 a 6.8791666,6.8791666 0 0 1 6.421437,6.82096 v 28.31042 h 5.159375 V 145.54144 A 12.038542,12.038542 0 0 0 18.807203,133.63519 Z m 50.257603,-0.0661 c -3.518958,-0.19843 -7.090833,-0.33072 -10.689166,-0.33072 -3.598334,0 -7.170209,0.13229 -10.689167,0.33072 a 12.038542,12.038542 0 0 0 -11.403541,11.9724 v 16.40417 A 12.038542,12.038542 0 0 0 47.686473,173.918 c 3.518958,0.19844 7.090833,0.33073 10.689167,0.33073 3.598333,0 7.170208,-0.13229 10.689166,-0.33073 a 12.038542,12.038542 0 0 0 11.403542,-11.97239 v -0.92604 h -5.159375 v 0.92604 a 6.8527082,6.8527082 0 0 1 -6.455834,6.79979 c -3.466041,0.21167 -6.958541,0.34396 -10.477499,0.34396 -3.518959,0 -7.011459,-0.13229 -10.4775,-0.34396 a 6.8527082,6.8527082 0 0 1 -6.455834,-6.79979 v -16.40417 a 6.8527082,6.8527082 0 0 1 6.455834,-6.79979 c 3.466041,-0.21167 6.958541,-0.34396 10.4775,-0.34396 3.518958,0 7.011458,0.13229 10.477499,0.34396 a 6.8527082,6.8527082 0 0 1 6.455834,6.79979 v 5.55625 H 54.010015 v 5.29167 h 26.458333 v -10.84792 a 12.038542,12.038542 0 0 0 -11.403542,-11.9724 z m 18.676937,11.96975 v 28.31042 h 5.159375 v -28.31042 c 0,-3.61685 2.968625,-6.74687 6.553729,-6.74687 H 109.96674 V 133.6299 H 99.274931 c -5.61975,0.005 -11.533188,4.87892 -11.533188,11.90889 z m 58.713687,-11.96975 c -3.51896,-0.19843 -7.09083,-0.33072 -10.68917,-0.33072 -3.59833,0 -7.17021,0.13229 -10.68916,0.33072 a 12.038542,12.038542 0 0 0 -11.40355,11.9724 v 16.40417 A 12.038542,12.038542 0 0 0 125.0771,173.918 c 3.51895,0.19844 7.09083,0.33073 10.68916,0.33073 3.59834,0 7.17021,-0.13229 10.68917,-0.33073 a 12.038542,12.038542 0 0 0 11.40354,-11.97239 v -10.84792 h -26.45833 v 5.29167 h 21.29896 v 5.55625 a 6.8527082,6.8527082 0 0 1 -6.45584,6.79979 c -3.46604,0.21167 -6.95854,0.34396 -10.4775,0.34396 -3.51896,0 -7.01146,-0.13229 -10.4775,-0.34396 a 6.8527082,6.8527082 0 0 1 -6.45583,-6.79979 v -16.40417 a 6.8527082,6.8527082 0 0 1 6.45583,-6.79979 c 3.46604,-0.21167 6.95854,-0.34396 10.4775,-0.34396 3.51896,0 7.01146,0.13229 10.4775,0.34396 a 6.8527082,6.8527082 0 0 1 6.45584,6.79979 v 0.92604 h 5.15937 v -0.92604 a 12.038542,12.038542 0 0 0 -11.40354,-11.9724 z m 57.81146,0.0661 h -6.46113 l -17.52864,23.25688 a 11.853333,11.853333 0 0 0 -2.39713,7.1702 v 9.78959 h 5.15938 v -9.78959 a 6.7204166,6.7204166 0 0 1 1.3626,-4.06664 z m -39.0869,0 h -6.73629 l 18.37796,21.89956 3.18558,-4.23068 z" />
  </g>
</svg>
